<svg width="24" height="24" viewBox="0 0 24 24" fill="none" xmlns="http://www.w3.org/2000/svg">
<path d="M12 0C5.382 0 0 5.382 0 12C0 13.914 0.462 15.804 1.338 17.502L0.0540001 22.098C-0.0899999 22.62 0.06 23.178 0.438 23.562C0.726 23.844 1.11 24 1.5 24C1.638 24 1.77 23.982 1.902 23.946L6.498 22.662C8.196 23.538 10.092 24 12 24C18.618 24 24 18.618 24 12C24 5.382 18.618 0 12 0ZM18.216 16.422C17.952 17.16 16.656 17.874 16.074 17.928C15.492 17.982 14.946 18.192 12.27 17.136C9.042 15.864 7.002 12.558 6.846 12.342C6.684 12.132 5.55 10.626 5.55 9.06C5.55 7.5 6.372 6.732 6.66 6.414C6.954 6.096 7.296 6.018 7.506 6.018C7.722 6.018 7.932 6.018 8.118 6.024C8.34 6.036 8.592 6.048 8.832 6.576C9.114 7.2 9.732 8.772 9.81 8.934C9.888 9.09 9.942 9.276 9.834 9.486C9.732 9.696 9.678 9.828 9.516 10.014C9.36 10.2 9.186 10.428 9.042 10.572C8.886 10.728 8.718 10.902 8.904 11.22C9.09 11.538 9.726 12.576 10.668 13.416C11.88 14.496 12.9 14.832 13.218 14.994C13.536 15.15 13.722 15.126 13.908 14.91C14.094 14.7 14.7 13.986 14.916 13.668C15.126 13.35 15.336 13.404 15.63 13.512C15.918 13.614 17.478 14.382 17.796 14.544C18.114 14.7 18.324 14.778 18.402 14.91C18.48 15.042 18.48 15.678 18.216 16.422Z" fill="#1D2B53"/>
</svg>
