<svg width="33" height="41" viewBox="0 0 33 41" fill="none" xmlns="http://www.w3.org/2000/svg">
<path d="M10.3747 20.5H22.6247H10.3747ZM10.3747 28.6667H22.6247H10.3747ZM26.708 38.875H6.29134C5.20837 38.875 4.16976 38.4448 3.40399 37.679C2.63821 36.9132 2.20801 35.8746 2.20801 34.7917V6.20833C2.20801 5.12537 2.63821 4.08675 3.40399 3.32098C4.16976 2.55521 5.20837 2.125 6.29134 2.125H17.6961C18.2375 2.12512 18.7568 2.3403 19.1396 2.72321L30.1931 13.7768C30.576 14.1596 30.7912 14.6788 30.7913 15.2202V34.7917C30.7913 35.8746 30.3611 36.9132 29.5954 37.679C28.8296 38.4448 27.791 38.875 26.708 38.875Z" stroke="#1D2B53" stroke-width="3" stroke-linecap="round" stroke-linejoin="round"/>
</svg>
