<svg width="23" height="24" viewBox="0 0 23 24" fill="none" xmlns="http://www.w3.org/2000/svg">
<path d="M6.96053 0C3.12255 0 0 3.25832 0 7.26316V16.7368C0 20.7417 3.12255 24 6.96053 24H16.0395C19.8774 24 23 20.7417 23 16.7368V7.26316C23 3.25832 19.8774 0 16.0395 0H6.96053ZM17.5526 4.42105C18.2214 4.42105 18.7632 4.98632 18.7632 5.68421C18.7632 6.38147 18.2214 6.94737 17.5526 6.94737C16.8838 6.94737 16.3421 6.38147 16.3421 5.68421C16.3421 4.98632 16.8838 4.42105 17.5526 4.42105ZM11.5 5.68421C14.8374 5.68421 17.5526 8.51747 17.5526 12C17.5526 15.4825 14.8374 18.3158 11.5 18.3158C8.16258 18.3158 5.44737 15.4825 5.44737 12C5.44737 8.51747 8.16258 5.68421 11.5 5.68421ZM11.5 7.57895C10.9436 7.57895 10.3927 7.6933 9.87863 7.91548C9.36459 8.13766 8.89753 8.46331 8.5041 8.87384C8.11067 9.28438 7.79859 9.77175 7.58567 10.3081C7.37275 10.8445 7.26316 11.4194 7.26316 12C7.26316 12.5806 7.37275 13.1555 7.58567 13.6919C7.79859 14.2282 8.11067 14.7156 8.5041 15.1262C8.89753 15.5367 9.36459 15.8623 9.87863 16.0845C10.3927 16.3067 10.9436 16.4211 11.5 16.4211C12.0564 16.4211 12.6073 16.3067 13.1214 16.0845C13.6354 15.8623 14.1025 15.5367 14.4959 15.1262C14.8893 14.7156 15.2014 14.2282 15.4143 13.6919C15.6273 13.1555 15.7368 12.5806 15.7368 12C15.7368 11.4194 15.6273 10.8445 15.4143 10.3081C15.2014 9.77175 14.8893 9.28438 14.4959 8.87384C14.1025 8.46331 13.6354 8.13766 13.1214 7.91548C12.6073 7.6933 12.0564 7.57895 11.5 7.57895Z" fill="#1D2B53"/>
</svg>
