<svg width="37" height="38" viewBox="0 0 37 38" fill="none" xmlns="http://www.w3.org/2000/svg">
<path d="M15.0187 23.6831C12.4593 24.4135 10.2074 25.9577 8.60372 28.082C7.84375 29.0887 7.24896 30.1997 6.83333 31.3734L6.77994 31.536M21.7426 23.6831C24.302 24.4136 26.5539 25.9578 28.1575 28.082C28.9175 29.0887 29.5123 30.1997 29.9279 31.3734L30.0479 31.6894M30.0479 31.6894C33.697 28.4822 36 23.78 36 18.54C36 8.87506 28.165 1.04004 18.5 1.04004C8.83502 1.04004 1 8.87506 1 18.54C1 23.6971 3.23074 28.3332 6.77994 31.536M30.0479 31.6894C26.9664 34.3977 22.925 36.04 18.5 36.04C13.9921 36.04 9.88233 34.3356 6.77994 31.536M18.3806 24.5678C22.1392 24.5678 25.1862 21.5208 25.1862 17.7623C25.1862 14.0037 22.1392 10.9567 18.3806 10.9567C14.6221 10.9567 11.5751 14.0037 11.5751 17.7623C11.5751 21.5208 14.6221 24.5678 18.3806 24.5678Z" stroke="#1D2B53" stroke-width="2" stroke-linecap="round" stroke-linejoin="round"/>
</svg>
