<svg width="370" height="177" viewBox="0 0 370 177" fill="none" xmlns="http://www.w3.org/2000/svg">
<g clip-path="url(#clip0_276_336)">
<path fill-rule="evenodd" clip-rule="evenodd" d="M160.136 152.837C143.705 168.346 121.796 176.963 99.022 176.963C60.9698 176.963 28.6831 153.268 15.999 119.807H32.4307C44.2499 144.651 69.618 161.884 99.022 161.884C117.76 161.884 135.633 154.847 149.326 142.21L160.136 152.837ZM15.999 57.1934C28.6831 23.8761 60.9698 0.0371094 99.022 0.0371094C121.075 0.0371094 142.407 8.2228 158.695 23.0145L156.677 24.8814L155.668 25.8867L147.884 33.6415C134.48 21.8656 117.039 15.116 99.022 15.116C69.618 15.116 44.2499 32.3491 32.4307 57.1934H15.999Z" fill="#FEC611"/>
<path fill-rule="evenodd" clip-rule="evenodd" d="M138.804 131.87C127.994 141.635 113.724 147.092 99.0222 147.092C78.1223 147.092 59.6728 136.322 49.2949 119.807H68.7534C76.5368 127.418 87.203 132.013 99.0222 132.013C109.688 132.013 119.922 128.136 127.85 121.099L138.804 131.87ZM49.2949 57.1934C59.6728 40.822 78.1223 29.9077 99.0222 29.9077C113.148 29.9077 126.841 34.934 137.363 44.125L126.697 54.8956C118.913 48.5768 109.112 44.9866 99.0222 44.9866C87.203 44.9866 76.5368 49.7257 68.7534 57.1934H49.2949Z" fill="#FEC611"/>
<path d="M0 109.467H31.566V100.707H9.80132V91.9466H29.8364V83.3301H9.80132V75.288H31.566V66.5279H0V109.467ZM65.5824 110.329C76.8251 110.329 83.023 104.584 83.023 96.6857C83.023 87.0639 74.5189 85.3406 67.4562 83.7609C62.6996 82.6121 58.2314 81.7504 58.2314 78.0166C58.2314 75.1444 60.8259 73.5647 64.7176 73.5647C70.0506 73.5647 71.9244 76.4369 72.0686 79.8835H82.014C81.2933 71.5542 75.5279 65.6663 65.0058 65.6663C54.7721 65.6663 48.8625 71.267 48.8625 78.8782C48.8625 89.0745 57.2224 90.9414 64.141 92.6647C69.0417 93.6699 73.2217 94.6752 73.2217 97.9782C73.2217 100.707 70.7713 102.574 65.7265 102.574C59.961 102.574 58.0873 99.2707 57.799 96.1113H48.1418C48.7183 104.871 54.4838 110.329 65.5824 110.329ZM100.752 109.467H132.318V100.707H110.553V91.9466H130.732V83.3301H110.553V75.288H132.318V66.5279H100.752V109.467ZM168.352 97.5474C178.442 97.5474 184.64 90.5105 184.64 81.7504C184.64 73.4211 179.018 66.5279 169.217 66.5279H150.623V109.467H160.425V97.5474H168.352ZM167.776 75.4316C172.244 75.4316 174.694 78.0166 174.694 81.894C174.694 85.9151 172.244 88.6436 168.064 88.6436H160.425V75.4316H167.776Z" fill="#2E5492"/>
<path d="M220.962 65.2354C219.665 65.2354 218.656 64.9482 217.503 64.5174C216.494 64.0866 215.629 63.5121 214.908 62.7941C214.188 61.9324 213.611 61.0708 213.179 60.0655C212.746 59.0603 212.458 57.9114 212.458 56.7625V56.6189C212.458 55.47 212.746 54.3212 213.179 53.3159C213.611 52.3106 214.188 51.449 214.908 50.5873C215.629 49.8693 216.494 49.2949 217.647 48.864C218.656 48.4332 219.809 48.146 220.962 48.146C221.827 48.146 222.548 48.146 223.124 48.2896C223.701 48.4332 224.277 48.5768 224.854 48.864C225.286 49.1513 225.863 49.4385 226.295 49.7257C226.728 50.0129 227.16 50.3001 227.448 50.731L225.719 52.8851C224.998 52.3106 224.277 51.7362 223.557 51.449C222.836 51.0182 221.971 50.8746 220.962 50.8746C220.241 50.8746 219.521 51.0182 218.8 51.3054C218.223 51.5926 217.647 52.0234 217.07 52.4543C216.638 53.0287 216.206 53.6031 215.917 54.3212C215.773 55.0392 215.629 55.7573 215.629 56.6189C215.629 57.4806 215.629 58.1986 215.917 58.9166C216.206 59.6347 216.638 60.2091 217.07 60.7836C217.647 61.358 218.223 61.7888 218.8 62.076C219.521 62.3633 220.241 62.5069 220.962 62.5069C221.971 62.5069 222.836 62.3633 223.557 61.9324C224.277 61.5016 224.998 61.0708 225.719 60.3527L227.592 62.2196C227.16 62.7941 226.728 63.0813 226.295 63.5121C225.863 63.7993 225.286 64.0866 224.854 64.3738C224.277 64.661 223.701 64.8046 222.98 64.9482C222.403 65.0918 221.683 65.2354 220.962 65.2354ZM230.763 48.4332H243.015V51.0182H233.646V55.3264H241.862V57.9114H233.646V62.3633H243.015V64.9482H230.763V48.4332ZM246.474 48.4332H249.213L258.005 59.7783V48.4332H260.888V64.9482H258.438L249.357 53.1723V64.9482H246.474V48.4332ZM269.248 51.1618H263.915V48.4332H277.32V51.1618H272.131V64.9482H269.248V51.1618ZM280.347 48.4332H292.598V51.0182H283.373V55.3264H291.589V57.9114H283.373V62.3633H292.742V64.9482H280.347V48.4332ZM296.202 48.4332H303.553C304.562 48.4332 305.571 48.5768 306.291 48.864C307.156 49.1513 307.877 49.5821 308.309 50.0129C308.742 50.5873 309.174 51.0182 309.318 51.5926C309.606 52.3106 309.751 52.8851 309.751 53.6031V53.7467C309.751 55.0392 309.318 56.0445 308.597 56.9061C307.877 57.7678 307.012 58.3422 305.859 58.6294L310.327 64.9482H306.868L302.832 59.2039H299.084V64.9482H296.202V48.4332ZM303.409 56.6189C304.418 56.6189 305.282 56.3317 305.859 55.9009C306.435 55.3264 306.724 54.752 306.724 53.8903V53.7467C306.724 52.8851 306.435 52.167 305.859 51.7362C305.282 51.3054 304.418 51.0182 303.409 51.0182H299.084V56.6189H303.409ZM320.417 48.4332H332.668V51.0182H323.299V55.6136H331.659V58.1986H323.299V64.9482H320.417V48.4332ZM343.767 65.2354C342.47 65.2354 341.317 64.9482 340.308 64.5174C339.155 64.0866 338.29 63.5121 337.569 62.6505C336.848 61.9324 336.272 61.0708 335.839 60.0655C335.407 58.9166 335.119 57.9114 335.119 56.7625V56.6189C335.119 55.47 335.407 54.4648 335.839 53.3159C336.272 52.3106 336.848 51.449 337.569 50.731C338.29 49.8693 339.299 49.2949 340.308 48.864C341.317 48.4332 342.47 48.146 343.767 48.146C345.064 48.146 346.217 48.4332 347.226 48.864C348.379 49.2949 349.244 49.8693 349.965 50.5873C350.83 51.449 351.406 52.3106 351.839 53.3159C352.271 54.3212 352.415 55.47 352.415 56.6189C352.415 57.7678 352.271 58.9166 351.839 59.9219C351.406 60.9272 350.83 61.9324 349.965 62.6505C349.244 63.3685 348.235 64.0866 347.226 64.5174C346.217 64.9482 345.064 65.2354 343.767 65.2354ZM343.767 62.5069C344.632 62.5069 345.352 62.3633 346.073 62.076C346.794 61.7888 347.37 61.358 347.803 60.7836C348.235 60.3527 348.668 59.6347 348.956 58.9166C349.244 58.1986 349.388 57.4806 349.388 56.7625V56.6189C349.388 55.9009 349.244 55.1828 348.956 54.4648C348.668 53.7467 348.235 53.0287 347.803 52.5979C347.37 52.0234 346.65 51.5926 346.073 51.3054C345.352 51.0182 344.632 50.8746 343.767 50.8746C342.902 50.8746 342.181 51.0182 341.461 51.3054C340.884 51.5926 340.164 52.0234 339.731 52.5979C339.299 53.0287 338.866 53.6031 338.578 54.3212C338.29 55.0392 338.146 55.7573 338.146 56.6189C338.146 57.4806 338.29 58.1986 338.578 58.9166C338.866 59.6347 339.299 60.2091 339.731 60.7836C340.308 61.358 340.884 61.7888 341.605 62.076C342.181 62.3633 343.046 62.5069 343.767 62.5069ZM355.874 48.4332H363.37C364.379 48.4332 365.243 48.5768 366.108 48.864C366.829 49.1513 367.55 49.5821 368.126 50.0129C368.559 50.5873 368.847 51.0182 369.135 51.5926C369.279 52.3106 369.423 52.8851 369.423 53.6031V53.7467C369.423 55.0392 369.135 56.0445 368.414 56.9061C367.55 57.7678 366.685 58.3422 365.532 58.6294L370 64.9482H366.541L362.505 59.2039H358.901V64.9482H355.874V48.4332ZM363.081 56.6189C364.09 56.6189 364.955 56.3317 365.532 55.9009C366.252 55.3264 366.541 54.752 366.541 53.8903V53.7467C366.541 52.8851 366.252 52.167 365.532 51.7362C364.955 51.3054 364.09 51.0182 363.081 51.0182H358.901V56.6189H363.081ZM220.097 72.1286H222.836L230.043 88.7872H227.016L225.286 84.7662H217.503L215.773 88.7872H212.746L220.097 72.1286ZM224.277 82.1812L221.395 75.5752L218.512 82.1812H224.277ZM232.925 72.2722H235.52L244.456 83.6173V72.2722H247.339V88.7872H244.889L235.808 77.0113V88.7872H232.925V72.2722ZM257.429 72.1286H260.023L267.374 88.7872H264.347L262.618 84.7662H254.834L253.105 88.7872H250.078L257.429 72.1286ZM261.609 82.1812L258.726 75.5752L255.843 82.1812H261.609ZM270.257 72.2722H273.14V86.0587H281.788V88.7872H270.257V72.2722ZM286.545 82.3249L280.058 72.2722H283.518L288.13 79.5963L292.742 72.2722H296.058L289.571 82.1812V88.7872H286.545V82.3249ZM302.688 75.0008H297.355V72.2722H310.904V75.0008H305.571V88.7872H302.688V75.0008ZM314.075 72.2722H316.957V88.7872H314.075V72.2722ZM329.065 89.0745C327.768 89.0745 326.759 88.7872 325.75 88.3564C324.597 87.9256 323.732 87.3512 323.011 86.6331C322.291 85.7715 321.714 84.9098 321.282 83.9045C320.849 82.8993 320.561 81.7504 320.561 80.6016C320.561 79.3091 320.849 78.3038 321.282 77.1549C321.714 76.1497 322.291 75.288 323.011 74.57C323.732 73.7083 324.597 73.1339 325.75 72.7031C326.759 72.2722 327.912 71.985 329.065 71.985C329.93 71.985 330.65 72.1286 331.227 72.2722C331.804 72.2722 332.38 72.5595 332.957 72.7031C333.389 72.9903 333.966 73.2775 334.398 73.5647C334.83 73.8519 335.263 74.1392 335.551 74.57L333.821 76.7241C333.101 76.1497 332.38 75.5752 331.659 75.288C330.939 74.8572 330.074 74.7136 329.065 74.7136C328.344 74.7136 327.624 74.8572 326.903 75.1444C326.326 75.4316 325.75 75.8625 325.173 76.4369C324.741 76.8677 324.308 77.5858 324.02 78.1602C323.876 78.8782 323.732 79.7399 323.732 80.4579V80.6016C323.732 81.3196 323.876 82.0376 324.02 82.7557C324.308 83.4737 324.741 84.1918 325.173 84.6226C325.75 85.197 326.326 85.6279 326.903 85.9151C327.624 86.2023 328.344 86.3459 329.065 86.3459C330.074 86.3459 330.939 86.2023 331.659 85.7715C332.38 85.4842 333.101 84.9098 333.821 84.1918L335.695 86.0587C335.263 86.6331 334.83 86.9203 334.398 87.3512C333.966 87.6384 333.389 88.0692 332.957 88.2128C332.38 88.5 331.804 88.6436 331.083 88.7872C330.506 88.9309 329.786 89.0745 329.065 89.0745ZM344.632 72.1286H347.37L354.577 88.7872H351.55L349.821 84.7662H342.037L340.308 88.7872H337.425L344.632 72.1286ZM348.812 82.1812L345.929 75.5752L343.046 82.1812H348.812ZM357.46 72.2722H360.343V86.0587H368.991V88.7872H357.46V72.2722ZM213.899 96.1113H221.25C222.259 96.1113 223.268 96.2549 223.989 96.5421C224.854 96.8293 225.574 97.2602 226.007 97.8346C226.439 98.2654 226.872 98.8398 227.016 99.4143C227.304 99.9887 227.448 100.707 227.448 101.425C227.448 102.717 227.016 103.866 226.295 104.728C225.574 105.446 224.566 106.02 223.557 106.451L227.881 112.626H224.566L220.386 106.882H216.782V112.626H213.899V96.1113ZM221.106 104.297C222.115 104.297 222.98 104.01 223.557 103.579C224.133 103.148 224.421 102.43 224.421 101.568C224.421 100.563 224.133 99.9887 223.557 99.5579C222.98 98.9835 222.115 98.8398 220.962 98.8398H216.782V104.297H221.106ZM230.908 96.1113H243.159V98.6962H233.934V103.004H242.15V105.589H233.934V110.041H243.303V112.626H230.908V96.1113ZM252.528 112.913C251.231 112.913 250.078 112.626 248.925 112.195C247.772 111.765 246.619 111.19 245.754 110.185L247.483 108.174C248.204 108.892 249.069 109.323 249.934 109.754C250.654 110.041 251.663 110.329 252.672 110.329C253.537 110.329 254.258 110.041 254.834 109.754C255.267 109.323 255.555 108.892 255.555 108.174C255.555 107.887 255.555 107.6 255.411 107.456C255.267 107.169 255.123 106.882 254.834 106.738C254.546 106.595 254.258 106.307 253.681 106.164C253.249 106.02 252.672 105.877 251.807 105.733C250.943 105.446 250.222 105.159 249.501 105.015C248.781 104.728 248.204 104.441 247.772 104.01C247.339 103.723 246.907 103.148 246.763 102.717C246.474 102.143 246.33 101.568 246.33 100.707C246.33 99.9887 246.474 99.4143 246.763 98.6962C247.051 98.1218 247.483 97.691 247.916 97.2602C248.492 96.8293 249.069 96.5421 249.79 96.2549C250.366 96.1113 251.231 95.9677 251.952 95.9677C253.249 95.9677 254.258 96.1113 255.267 96.3985C256.276 96.8293 257.141 97.2602 258.005 97.9782L256.42 100.132C255.699 99.7015 254.978 99.2707 254.114 98.9835C253.393 98.6962 252.672 98.5526 251.952 98.5526C251.087 98.5526 250.366 98.6962 249.934 98.9835C249.501 99.4143 249.213 99.8451 249.213 100.42C249.213 100.85 249.357 101.138 249.357 101.281C249.501 101.568 249.79 101.856 250.078 101.999C250.366 102.143 250.798 102.43 251.231 102.574C251.807 102.717 252.384 102.861 253.249 103.004C254.114 103.292 254.834 103.579 255.411 103.866C256.132 104.01 256.708 104.441 257.141 104.728C257.573 105.159 257.861 105.589 258.149 106.164C258.438 106.595 258.438 107.169 258.438 107.887C258.438 108.749 258.294 109.467 258.005 110.041C257.717 110.616 257.285 111.19 256.852 111.621C256.276 112.052 255.699 112.339 254.978 112.483C254.258 112.77 253.393 112.913 252.528 112.913ZM261.897 96.1113H274.149V98.6962H264.78V103.004H273.14V105.589H264.78V110.041H274.293V112.626H261.897V96.1113ZM283.518 96.1113H286.256L293.607 112.626H290.436L288.851 108.605H280.923L279.338 112.626H276.311L283.518 96.1113ZM287.698 106.02L284.815 99.5579L282.076 106.02H287.698ZM296.346 96.1113H303.697C304.85 96.1113 305.715 96.2549 306.58 96.5421C307.3 96.8293 308.021 97.2602 308.453 97.8346C308.886 98.2654 309.318 98.8398 309.462 99.4143C309.751 99.9887 309.895 100.707 309.895 101.425C309.895 102.717 309.462 103.866 308.742 104.728C308.021 105.446 307.156 106.02 306.003 106.451L310.471 112.626H307.012L302.976 106.882H299.229V112.626H296.346V96.1113ZM303.553 104.297C304.562 104.297 305.426 104.01 306.003 103.579C306.58 103.148 306.868 102.43 306.868 101.568C306.868 100.563 306.58 99.9887 306.003 99.5579C305.426 98.9835 304.562 98.8398 303.553 98.8398H299.229V104.297H303.553ZM321.137 112.913C319.84 112.913 318.831 112.626 317.822 112.195C316.813 111.765 315.804 111.19 315.084 110.472C314.363 109.754 313.786 108.749 313.354 107.744C312.922 106.738 312.777 105.589 312.777 104.441C312.777 103.148 312.922 102.143 313.354 101.138C313.786 99.9887 314.363 99.1271 315.084 98.409C315.804 97.5474 316.813 96.9729 317.822 96.5421C318.831 96.1113 319.984 95.8241 321.282 95.8241C322.002 95.8241 322.723 95.9677 323.299 96.1113C323.876 96.2549 324.453 96.3985 325.029 96.5421C325.606 96.8293 326.038 97.1165 326.47 97.4038C326.903 97.691 327.335 98.1218 327.768 98.409L325.894 100.563C325.173 99.9887 324.453 99.4143 323.732 99.1271C323.011 98.6962 322.146 98.5526 321.137 98.5526C320.417 98.5526 319.696 98.6962 318.975 98.9835C318.399 99.2707 317.822 99.7015 317.246 100.276C316.813 100.707 316.381 101.425 316.237 102.143C315.948 102.861 315.804 103.579 315.804 104.297V104.441C315.804 105.159 315.948 106.02 316.237 106.595C316.381 107.313 316.813 108.031 317.246 108.462C317.822 109.036 318.399 109.467 318.975 109.754C319.696 110.041 320.417 110.185 321.282 110.185C322.291 110.185 323.155 110.041 323.876 109.61C324.597 109.323 325.317 108.749 325.894 108.174L327.768 110.041C327.335 110.472 326.903 110.903 326.47 111.19C326.038 111.621 325.462 111.908 325.029 112.052C324.453 112.339 323.876 112.626 323.299 112.77C322.579 112.913 321.858 112.913 321.137 112.913ZM330.939 96.1113H333.821V103.004H341.749V96.1113H344.632V112.626H341.749V105.733H333.821V112.626H330.939V96.1113ZM365.243 110.759C364.523 111.334 363.658 111.908 362.937 112.339C362.072 112.626 361.063 112.913 360.199 112.913C359.334 112.913 358.613 112.77 358.037 112.483C357.316 112.339 356.739 112.052 356.307 111.621C355.73 111.19 355.442 110.616 355.154 110.041C354.866 109.467 354.721 108.892 354.721 108.174C354.721 107.026 355.01 106.164 355.586 105.302C356.307 104.584 357.172 104.01 358.181 103.579C357.748 102.861 357.46 102.286 357.172 101.856C357.028 101.281 356.883 100.707 356.883 100.132V99.9887C356.883 99.4143 357.028 98.9835 357.172 98.409C357.46 97.9782 357.748 97.5474 358.181 97.1165C358.613 96.6857 359.045 96.3985 359.622 96.2549C360.199 95.9677 360.919 95.8241 361.64 95.8241C362.217 95.8241 362.937 95.9677 363.37 96.1113C363.946 96.3985 364.379 96.6857 364.811 96.9729C365.243 97.4038 365.532 97.8346 365.676 98.2654C365.964 98.8398 365.964 99.2707 365.964 99.8451C365.964 100.994 365.676 101.856 364.955 102.574C364.379 103.292 363.514 103.723 362.361 104.153L365.243 107.026C365.532 106.595 365.82 106.02 366.108 105.589C366.396 105.015 366.685 104.441 366.973 103.866L369.135 105.015C368.847 105.733 368.559 106.307 368.126 107.026C367.694 107.6 367.405 108.174 366.973 108.749L369.567 111.334L367.405 112.913L365.243 110.759ZM360.775 102.574C361.64 102.286 362.361 101.999 362.793 101.568C363.225 101.138 363.37 100.707 363.37 100.132V99.9887C363.37 99.4143 363.225 98.9835 362.937 98.6962C362.505 98.2654 362.072 98.1218 361.64 98.1218C360.919 98.1218 360.487 98.409 360.199 98.6962C359.766 99.1271 359.622 99.5579 359.622 100.132C359.622 100.563 359.622 100.994 359.91 101.281C360.054 101.712 360.343 102.143 360.775 102.574ZM360.343 110.472C360.919 110.472 361.496 110.329 362.072 110.041C362.505 109.898 363.081 109.467 363.514 109.036L359.91 105.302C359.045 105.589 358.469 106.02 358.181 106.451C357.892 107.026 357.604 107.456 357.604 108.031C357.604 108.749 357.892 109.323 358.469 109.754C358.901 110.185 359.622 110.472 360.343 110.472ZM213.467 119.95H225.719V122.679H216.35V126.844H224.71V129.572H216.35V133.88H225.863V136.465H213.467V119.95ZM227.881 119.95H231.196L236.097 132.731L240.997 119.95H244.168L237.394 136.609H234.799L227.881 119.95ZM250.51 119.95H253.249L260.456 136.465H257.429L255.699 132.444H247.916L246.186 136.465H243.303L250.51 119.95ZM254.69 130.003L251.807 123.397L249.069 130.003H254.69ZM263.338 119.95H266.221V133.88H274.869V136.465H263.338V119.95ZM284.238 136.753C283.229 136.753 282.22 136.609 281.356 136.322C280.491 136.034 279.77 135.46 279.194 134.886C278.473 134.311 278.04 133.593 277.752 132.588C277.32 131.726 277.176 130.721 277.176 129.572V119.95H280.058V129.428C280.058 130.865 280.491 132.013 281.211 132.875C281.932 133.737 282.941 134.024 284.238 134.024C285.536 134.024 286.545 133.737 287.409 132.875C288.13 132.157 288.418 131.008 288.418 129.572V119.95H291.301V129.428C291.301 130.577 291.157 131.726 290.869 132.588C290.58 133.45 290.004 134.311 289.427 134.886C288.851 135.46 288.13 136.034 287.121 136.322C286.256 136.609 285.391 136.753 284.238 136.753ZM300.67 119.95H303.264L310.615 136.465H307.444L305.859 132.444H298.075L296.346 136.465H293.319L300.67 119.95ZM304.706 130.003L301.967 123.397L299.084 130.003H304.706ZM315.372 122.679H310.039V119.95H323.588V122.679H318.255V136.465H315.372V122.679ZM326.759 119.95H329.642V136.465H326.759V119.95ZM341.893 136.753C340.596 136.753 339.443 136.609 338.434 136.034C337.425 135.604 336.416 135.029 335.695 134.311C334.975 133.45 334.398 132.588 333.966 131.583C333.533 130.577 333.245 129.428 333.245 128.28C333.245 127.131 333.533 125.982 333.966 124.977C334.398 123.971 334.975 123.11 335.695 122.248C336.56 121.53 337.425 120.812 338.434 120.381C339.587 119.95 340.74 119.807 341.893 119.807C343.19 119.807 344.343 119.95 345.497 120.381C346.506 120.812 347.37 121.53 348.235 122.248C348.956 122.966 349.532 123.828 349.965 124.977C350.397 125.982 350.541 126.987 350.541 128.136V128.28C350.541 129.428 350.397 130.577 349.965 131.583C349.532 132.588 348.956 133.45 348.091 134.311C347.37 135.029 346.506 135.604 345.352 136.034C344.343 136.609 343.19 136.753 341.893 136.753ZM341.893 134.024C342.758 134.024 343.479 133.88 344.199 133.593C344.92 133.306 345.497 132.875 345.929 132.444C346.506 131.87 346.794 131.295 347.082 130.577C347.37 129.859 347.515 129.141 347.515 128.28C347.515 127.418 347.37 126.7 347.082 125.982C346.794 125.264 346.506 124.689 345.929 124.115C345.497 123.541 344.92 123.253 344.199 122.822C343.479 122.535 342.758 122.392 341.893 122.392C341.028 122.392 340.308 122.535 339.731 122.822C339.01 123.253 338.434 123.541 337.857 124.115C337.425 124.689 336.993 125.264 336.704 125.982C336.416 126.7 336.272 127.418 336.272 128.136V128.28C336.272 128.998 336.416 129.859 336.704 130.577C336.993 131.152 337.425 131.87 337.857 132.301C338.434 132.875 339.01 133.306 339.731 133.593C340.452 133.88 341.172 134.024 341.893 134.024ZM354.145 119.95H356.739L365.676 131.439V119.95H368.559V136.465H366.108L356.883 124.833V136.465H354.145V119.95Z" fill="#2E5492"/>
</g>
<defs>
<clipPath id="clip0_276_336">
<rect width="370" height="177" fill="white"/>
</clipPath>
</defs>
</svg>
