<svg width="357" height="280" viewBox="0 0 357 280" fill="none" xmlns="http://www.w3.org/2000/svg">
<g opacity="0.05">
<mask id="mask0_353_232" style="mask-type:alpha" maskUnits="userSpaceOnUse" x="0" y="0" width="370" height="477">
<path d="M293 305.473C284.6 311.407 274.628 314.716 264.347 314.983C254.066 315.249 243.937 312.461 235.24 306.97C226.544 301.48 219.671 293.534 215.49 284.137C211.309 274.741 210.009 264.316 211.753 254.18C213.498 244.044 218.209 234.654 225.29 227.195C232.372 219.737 241.506 214.546 251.537 212.279C261.569 210.012 272.048 210.771 281.648 214.459C291.249 218.147 299.54 224.599 305.473 233" stroke="white" stroke-width="30"/>
<path d="M355.434 303.705C346.875 323.143 332.405 339.387 314.083 350.129C295.761 360.871 274.519 365.564 253.377 363.541C232.235 361.517 212.268 352.88 196.317 338.857C180.365 324.835 169.24 306.14 164.523 285.432C159.805 264.723 161.737 243.055 170.041 223.507C178.346 203.959 192.602 187.527 210.782 176.546C228.962 165.565 250.141 160.595 271.308 162.342C292.475 164.089 312.552 172.465 328.686 186.277" stroke="white" stroke-width="30"/>
<path d="M356.805 380.049C336.711 396.153 312.81 406.812 287.403 411.002C261.995 415.191 235.937 412.769 211.737 403.968C187.537 395.168 166.01 380.286 149.228 360.755C132.447 341.223 120.976 317.701 115.92 292.452C110.864 267.202 112.393 241.076 120.36 216.589C128.328 192.102 142.465 170.079 161.41 152.639C180.356 135.199 203.473 122.93 228.534 117.013C253.596 111.097 279.759 111.731 304.504 118.856" stroke="white" stroke-width="30"/>
<path d="M314.705 455.165C287.508 462.483 259.067 463.944 231.263 459.453C203.459 454.961 176.925 444.618 153.416 429.109C129.906 413.599 109.957 393.276 94.886 369.483C79.8154 345.69 69.967 318.968 65.992 291.086C62.0169 263.203 64.0058 234.794 71.827 207.738C79.6483 180.681 93.1238 155.592 111.363 134.131C129.601 112.67 152.188 95.3246 177.629 83.242C203.07 71.1595 230.786 64.6149 258.945 64.041" stroke="white" stroke-width="30"/>
<path d="M46.1314 383.3C23.6671 342.802 12.9909 296.824 15.3117 250.572C17.6325 204.319 32.8577 159.641 59.263 121.596C85.6684 83.5506 122.199 53.659 164.718 35.3061C207.236 16.9532 254.044 10.8722 299.841 17.7518" stroke="white" stroke-width="30"/>
</mask>
<g mask="url(#mask0_353_232)">
<rect x="-935" y="-149" width="1290" height="500" rx="4" fill="white"/>
</g>
</g>
</svg>
